Coordinates

Units are S.I. units (second, meters, Newtons, ...)
If the header above contains a line with 'inDegrees', this indicates whether rotational values are in degrees (yes) or radians (no).

inDegrees=no
nColumns=22
nRows=19
DataType=double
version=3
OpenSimVersion=4.6-2026-03-31-d6972f9e6
endheader
time	/jointset/ground_pelvis/pelvis_tilt/value	/jointset/ground_pelvis/pelvis_list/value	/jointset/ground_pelvis/pelvis_rotation/value	/jointset/ground_pelvis/pelvis_tx/value	/jointset/ground_pelvis/pelvis_ty/value	/jointset/ground_pelvis/pelvis_tz/value	/jointset/hip_r/hip_flexion_r/value	/jointset/hip_r/hip_adduction_r/value	/jointset/hip_r/hip_rotation_r/value	/jointset/walker_knee_r/knee_angle_r/value	/jointset/patellofemoral_r/knee_angle_r_beta/value	/jointset/ankle_r/ankle_angle_r/value	/jointset/hip_l/hip_flexion_l/value	/jointset/hip_l/hip_adduction_l/value	/jointset/hip_l/hip_rotation_l/value	/jointset/walker_knee_l/knee_angle_l/value	/jointset/patellofemoral_l/knee_angle_l_beta/value	/jointset/ankle_l/ankle_angle_l/value	/jointset/back/lumbar_extension/value	/jointset/back/lumbar_bending/value	/jointset/back/lumbar_rotation/value
22.05	-0.6203485783000575	0.07744395295193873	0.02890128324843443	-2.39432845713465	0.6528345869269337	2.466684496444647	1.578766414061308	-0.2872739684452055	0.1539205183082767	1.612701207250818	1.612701207041338	0.5452955329490023	1.52166413842209	-0.1259215957229902	0.07934344268743461	1.626387123399487	1.626387123088911	0.5296683232042226	-0.209340041895541	-0.005145953591256227	-0.08770673133670548
22.055	-0.6232301968145197	0.07628804117755843	0.02991916842816131	-2.395602294280344	0.6482511815724488	2.466717670151333	1.590775621925038	-0.2864805446632877	0.1574965477581712	1.626968105198738	1.626968104840838	0.5479003988426031	1.534081790044058	-0.1262646054473255	0.08202361619120564	1.640071506159579	1.64007150576359	0.5316930588429962	-0.2107296373519942	-0.003788390369762733	-0.08841540596098385
22.06	-0.6259637435159909	0.0750710741951691	0.03088729436001186	-2.396871460311851	0.6436907526427461	2.466759280810016	1.602557968118596	-0.2856308904094734	0.1609847415303379	1.641050128630329	1.64105012811772	0.5504279009859616	1.546342259847868	-0.1266791848300018	0.08469410881129068	1.65360608668588	1.653606086201512	0.5336168479927902	-0.2123068106013703	-0.002339672549586363	-0.08906667407045502
22.065	-0.6285380808015631	0.07380344699559242	0.03180700488985005	-2.398135114455603	0.639155840940256	2.466808672045707	1.614105995869619	-0.2847373114020184	0.1643856140403264	1.654948826670166	1.654948825999112	0.5528793015902879	1.558429405915908	-0.1271585194251554	0.08735129803843372	1.66698752586879	1.666987525295817	0.5354433166489272	-0.2140885238376367	-0.0008093289339588218	-0.08966317954121228
22.07	-0.6309428636683113	0.07249571963418688	0.03268000795389368	-2.399392298873945	0.6346488934196794	2.466865089298862	1.625413094395718	-0.2838125111383827	0.1676999722117905	1.668665965824745	1.668665964994704	0.5552559290933752	1.570327629271264	-0.1276955342372208	0.08999140359139292	1.680212874997542	1.680212874338966	0.5371761304451619	-0.2160899079058416	0.0007928219718904994	-0.09020821729726956
22.075	-0.6331689898539035	0.07115840004272111	0.03350833355976834	-2.400641977633488	0.6301722100496931	2.466927699923822	1.636473908271287	-0.2828693535512284	0.1709288435425452	1.68220348098598	1.682203480000071	0.557559051145214	1.582022471756106	-0.1282830405325696	0.09261060240718785	1.693279604068493	1.693279603330843	0.5388187986342852	-0.2183236321944827	0.002456821827468251	-0.09070572107685582
22.08	-0.6352089530280624	0.0698017328173727	0.0342942745384914	-2.401883073633329	0.6257279024589173	2.46699561538406	1.647284637076333	-0.2819206225164947	0.1740734025508537	1.695563418568409	1.695563417433618	0.5597897850483836	1.593501104023872	-0.1289138739767668	0.0952051645638383	1.706185616899388	1.706185616092783	0.5403745227269817	-0.2207994180516883	0.004172719844080289	-0.09116022866439451
22.085	-0.6370571229896633	0.06843549270031395	0.03504031489499423	-2.403114504046745	0.6213178613900545	2.467067914634589	1.657843254740918	-0.2809787841523613	0.1771348904560794	1.708747876422209	1.708747875149334	0.5619490292908081	1.604752732549706	-0.1295810229497901	0.09777160602096407	1.718929255398683	1.718929254536639	0.5418460740058321	-0.2235236628063804	0.005930719725702196	-0.09157682592481639
22.09	-0.6387099620295831	0.06706878443914824	0.03574905010210529	-2.404335214033213	0.6169437318817015	2.467143667826134	1.66814966025968	-0.2800557583102962	0.1801145256412916	1.721758942333607	1.721758940937018	0.5640374138272157	1.615768935444286	-0.1302777460390565	0.1003068498527445	1.731509292665089	1.731509291764131	0.5432356972774058	-0.2264991617821941	0.007721326484245049	-0.09196107037649602
22.095	-0.64016615589338	0.06570985755693542	0.03642310113564358	-2.405544206979132	0.6126068989877661	2.467221959721628	1.678205736718051	-0.2791627054852606	0.183013409101625	1.734598629641784	1.734598628139033	0.5660552865245055	1.626543897343034	-0.1309976761676877	0.102808384267395	1.743924911695983	1.743924910775081	0.544545059808363	-0.2297249581998539	0.009535487753467924	-0.09231889400999985
22.1	-0.641426632996272	0.06436594742318164	0.03706502328209187	-2.406740569359839	0.6083084874531262	2.467301912299748	1.688015291496931	-0.2783098341982301	0.1858324346259325	1.747268808929211	1.747268807340513	0.5680027497280317	1.637074506710633	-0.1317349071301727	0.1052744075064459	1.756175667402489	1.756175666482334	0.5457752646234473	-0.2331963578047755	0.01136472103398378	-0.0926564858815741
22.105	-0.6424944720797101	0.06304314901051734	0.03767721258905998	-2.407923489656383	0.6040493753793619	2.46738270586948	1.697583881080325	-0.2775062324159134	0.1885722124321475	1.759771137984064	1.759771136331667	0.5698797383468894	1.6473603124637	-0.1324840590396905	0.107703954715309	1.768261433472147	1.768261432574284	0.5469269249885322	-0.2369051084850431	0.01320122232089334	-0.09298015668643313
22.11	-0.6433747341349765	0.06174632006224717	0.03826181498553408	-2.409092272512904	0.5998302173659007	2.467463597891507	1.706918562841498	-0.276759724817735	0.1912330074996632	1.772106994754946	1.772106993062432	0.5716861096903947	1.657403383057937	-0.1332403222113579	0.1100970082139972	1.780182339693272	1.78018233883914	0.5480002701780666	-0.2408396955777577	0.0150379604546884	-0.09329618834572498
22.115	-0.6440742746416392	0.06047900336083806	0.03882064356274463	-2.410246350339222	0.5956514700664032	2.4675439387693	1.716027637010766	-0.2760767557797294	0.1938146867652935	1.78427741780348	1.784277416095045	0.5734217091229203	1.66720813803844	-0.1339994816089953	0.1124545981275332	1.791938707321467	1.791938706531412	0.5489952396529959	-0.2449856751384888	0.01686876806601182	-0.09361067155138245
22.12	-0.6446015833540909	0.05924335858035936	0.03935510813495501	-2.411385294179661	0.5915134142708838	2.467623184084106	1.724920430918939	-0.2754622970263919	0.1963166687633932	1.796283056391887	1.796283054691662	0.5750863881514731	1.676781211233013	-0.1347579245899495	0.1147789001776496	1.803530988534729	1.803530987827087	0.5499115328061397	-0.2493259791090738	0.01868843894544985	-0.09392933379287007
22.125	-0.6449666626589691	0.05804010376865766	0.03986615897464056	-2.412508823912245	0.5874161722618483	2.467700902992131	1.733607137292701	-0.2749197800942084	0.1987378768420912	1.808124129564894	1.808124127896334	0.5766799785317763	1.686131357462712	-0.1355126336620003	0.1170733283429312	1.814959711248684	1.814959710638995	0.5507486130379956	-0.2538411760548759	0.02049283202442534	-0.09425736025906717
22.13	-0.6451809114192515	0.05686848007873831	0.04035424482644805	-2.413616815629153	0.5833597247517794	2.467776782731609	1.742098670783689	-0.2744510568662117	0.2010767080589959	1.819800392563433	1.819800390948797	0.5782022528508919	1.695269356186296	-0.1362611645827606	0.1193426060059325	1.826225425489078	1.826225424989488	0.5515057012727291	-0.2585097319618885	0.02227896835304293	-0.09459921069195018
22.135	-0.64525696809476	0.05572625817948605	0.04081928531268181	-2.414709303362986	0.5793439331423449	2.467850629338731	1.750406494319598	-0.2740563940775626	0.2033310320448919	1.831311111660964	1.831311110120878	0.5796529031406189	1.704207848476542	-0.1370016102145868	0.1215927928641481	1.83732864769991	1.837328647318787	0.5521818002443997	-0.2633083330470056	0.02404510200458445	-0.09495843662971327
22.14	-0.6452084974883339	0.05460979507016075	0.0412606595002387	-2.415786473981375	0.5753685687711528	2.467922364755598	1.758542400956301	-0.2737345062353103	0.2054982249925934	1.842655051472559	1.842655050025624	0.5810315436292748	1.712961085011899	-0.1377325518321191	0.1238312539781113	1.84826980422877	1.848269803970546	0.5527757601668651	-0.2682122895717519	0.02579075434768061	-0.09533750485294423
